<?xml version="1.0" encoding="utf-8"?>
<!-- Generator: Adobe Illustrator 20.1.0, SVG Export Plug-In . SVG Version: 6.00 Build 0)  -->
<svg version="1.1" id="Layer_1" xmlns="http://www.w3.org/2000/svg" xmlns:xlink="http://www.w3.org/1999/xlink" x="0px" y="0px"
	 viewBox="0 0 35 35" style="enable-background:new 0 0 35 35;" xml:space="preserve">
<style type="text/css">
	.st0{fill:#8dc63f;}
	.st1{fill:#3d4351;}
</style>
<title>Dragonboard Logo</title>
<rect class="st0" width="35" height="35"/>
<path class="st1" d="M9,5.5h5.3c2-0.1,4,0.3,5.9,1.1c1.5,0.6,2.8,1.5,3.9,2.7c1,1.1,1.7,2.3,2.1,3.7c0.4,1.3,0.7,2.7,0.7,4.1
	c0,1.6-0.3,3.2-0.9,4.7c-1.2,2.7-3.4,4.8-6.1,5.8c-1.4,0.5-2.9,0.8-4.4,0.8H9V5.5z M15.2,26.3c1.3,0,2.5-0.2,3.7-0.6
	c1.1-0.4,2.1-1,3-1.8c0.9-0.8,1.5-1.8,2-2.9c0.5-1.2,0.8-2.6,0.8-3.9c0-1.3-0.3-2.5-0.7-3.7c-0.4-1.1-1.1-2.2-2-3
	c-0.9-0.9-1.9-1.5-3.1-2c-1.3-0.5-2.6-0.7-4-0.7h-3.8v18.7H15.2z"/>
</svg>
