<svg id="Layer_1" data-name="Layer 1" xmlns="http://www.w3.org/2000/svg" viewBox="0 0 290.65 25.49"><defs><style>.cls-1{fill:#fff;}</style></defs><title>Untitled-2</title><path class="cls-1" d="M1.37,1.87H6.79a14.82,14.82,0,0,1,6,1.08,11.55,11.55,0,0,1,4,2.78A10.46,10.46,0,0,1,19,9.54a13.4,13.4,0,0,1,.69,4.17,11.6,11.6,0,0,1-.95,4.77,11,11,0,0,1-6.27,5.93,12.67,12.67,0,0,1-4.51.8H1.37ZM7.71,23.08a11,11,0,0,0,3.81-.65,9.16,9.16,0,0,0,3.1-1.88,8.63,8.63,0,0,0,2.08-3,10.09,10.09,0,0,0,.75-4,10,10,0,0,0-.7-3.77,8.71,8.71,0,0,0-2-3,9.53,9.53,0,0,0-3.14-2A11,11,0,0,0,7.48,4H3.62V23.08Z" transform="translate(-1.37 -0.8)"/><path class="cls-1" d="M29.37,25.21V1.87H35a9.91,9.91,0,0,1,2.84.41A7.1,7.1,0,0,1,40.3,3.54,6.27,6.27,0,0,1,42,5.67a6.73,6.73,0,0,1,.64,3,8.23,8.23,0,0,1-.88,3.73,5.91,5.91,0,0,1-2.91,2.71l.78,1.31,1.08,1.78,1.23,2,1.23,2L44.24,24,45,25.21H42.31q-.26-.39-.69-1.08l-.95-1.54-1.11-1.8-1.14-1.86L37.36,17.2l-.87-1.4a3.5,3.5,0,0,1-.69.06H31.59v9.35Zm2.22-11.47h3.46a5.82,5.82,0,0,0,2.61-.52,4.77,4.77,0,0,0,1.65-1.29,4.7,4.7,0,0,0,.85-1.63,5.87,5.87,0,0,0,.25-1.58A4.59,4.59,0,0,0,40.08,7a4.66,4.66,0,0,0-1-1.52,4.81,4.81,0,0,0-1.67-1.08A6.17,6.17,0,0,0,35.09,4h-3.5Z" transform="translate(-1.37 -0.8)"/><path class="cls-1" d="M68.85,25.21q-.65-1.5-1.54-3.69t-1.83-4.64h-9q-.95,2.45-1.83,4.64t-1.54,3.69H50.94l1.31-3.12q.82-1.94,1.76-4.26L56,13l2-4.82q.95-2.32,1.75-4.25T61,.8Q61.5,2,62.31,3.93t1.76,4.25l2,4.82,2,4.82,1.75,4.26q.8,1.94,1.32,3.12ZM60.68,6.52Q60,8.05,59.13,10.27t-1.85,4.67h7.45l-1.86-4.67Q62,8.05,61.33,6.52a3.22,3.22,0,0,1-.16-.44q-.1-.31-.16-.57-.07.26-.16.57A3.36,3.36,0,0,1,60.68,6.52Z" transform="translate(-1.37 -0.8)"/><path class="cls-1" d="M95.65,14.52V23.8a11.91,11.91,0,0,1-3,1.23,14.13,14.13,0,0,1-3.56.44,13,13,0,0,1-5-.9,11.11,11.11,0,0,1-3.76-2.47,11,11,0,0,1-2.4-3.69,12.2,12.2,0,0,1-.85-4.58,12.18,12.18,0,0,1,3.58-8.76,11.91,11.91,0,0,1,3.86-2.55,12,12,0,0,1,4.66-.92A14,14,0,0,1,92.56,2a10.84,10.84,0,0,1,3.06,1.24L94.5,5.11a9.41,9.41,0,0,0-2.53-1,11.28,11.28,0,0,0-2.83-.38,9.26,9.26,0,0,0-3.77.78,10.36,10.36,0,0,0-3.14,2.12,9.87,9.87,0,0,0-2.14,3.17,9.77,9.77,0,0,0-.78,3.89A10,10,0,0,0,80,17.4a9.43,9.43,0,0,0,2,3.09,9.25,9.25,0,0,0,3.07,2.09,10,10,0,0,0,4,.77,11.28,11.28,0,0,0,2.27-.25,10.67,10.67,0,0,0,2.27-.74V16.48h-5v-2Z" transform="translate(-1.37 -0.8)"/><path class="cls-1" d="M104.08,13.57A11.61,11.61,0,0,1,105,8.95a12,12,0,0,1,6.34-6.39,11.79,11.79,0,0,1,9.26,0,12,12,0,0,1,3.81,2.58A12.42,12.42,0,0,1,127,8.95a11.76,11.76,0,0,1,0,9.25A12.21,12.21,0,0,1,124.42,22a11.94,11.94,0,0,1-3.81,2.55,12,12,0,0,1-9.26,0A11.88,11.88,0,0,1,105,18.2,11.61,11.61,0,0,1,104.08,13.57Zm2.22,0a9.52,9.52,0,0,0,.77,3.81,10,10,0,0,0,2.08,3.1,9.72,9.72,0,0,0,3.07,2.09,9.31,9.31,0,0,0,3.76.77,9.43,9.43,0,0,0,3.77-.77,9.78,9.78,0,0,0,5.2-5.2,9.82,9.82,0,0,0,0-7.61,10.08,10.08,0,0,0-2.09-3.12,9.73,9.73,0,0,0-3.1-2.11A9.44,9.44,0,0,0,116,3.77a9.28,9.28,0,0,0-3.77.77,9.82,9.82,0,0,0-5.15,5.23A9.69,9.69,0,0,0,106.3,13.57Z" transform="translate(-1.37 -0.8)"/><path class="cls-1" d="M157.45,1.87V26.29q-.95-1.14-2.34-2.73t-3-3.38l-3.33-3.68q-1.72-1.88-3.32-3.68t-2.93-3.35q-1.32-1.55-2.17-2.7l-.29-.38-.36-.47.1,1V25.21h-2.22V.8q.95,1.21,2.32,2.78t3,3.33l3.32,3.63,3.28,3.61q1.58,1.75,3,3.3t2.25,2.7a1.75,1.75,0,0,0,.26.41l.36.47-.1-1.08V1.87Z" transform="translate(-1.37 -0.8)"/><path class="cls-1" d="M168.82,25.21V1.87h5.46a12.38,12.38,0,0,1,3,.33,6.15,6.15,0,0,1,2.27,1A4.66,4.66,0,0,1,181,5.11a6.84,6.84,0,0,1,.51,2.78,8.18,8.18,0,0,1-.2,1.81,5.7,5.7,0,0,1-.62,1.6,4.43,4.43,0,0,1-1.11,1.27,5,5,0,0,1-1.7.83,7.7,7.7,0,0,1,1.78.62,5.55,5.55,0,0,1,1.54,1.11,5.29,5.29,0,0,1,1.08,1.65,5.7,5.7,0,0,1,.41,2.24,5.81,5.81,0,0,1-.62,2.75,5.56,5.56,0,0,1-1.65,1.93A7.33,7.33,0,0,1,178,24.83a10.22,10.22,0,0,1-2.78.38ZM171,3.9v8.6H175a4,4,0,0,0,3.2-1.26,4.72,4.72,0,0,0,1.08-3.19,3.71,3.71,0,0,0-1.31-3.17,5.52,5.52,0,0,0-3.4-1Zm0,10.52v8.76h4a7.64,7.64,0,0,0,2.09-.28,5.31,5.31,0,0,0,1.72-.82A3.87,3.87,0,0,0,180,20.73a4.05,4.05,0,0,0,.42-1.9,4,4,0,0,0-.49-2,3.9,3.9,0,0,0-1.32-1.37,6.15,6.15,0,0,0-1.9-.77,9.65,9.65,0,0,0-2.17-.24Z" transform="translate(-1.37 -0.8)"/><path class="cls-1" d="M190.78,13.57a11.63,11.63,0,0,1,.93-4.62A12.05,12.05,0,0,1,198,2.56a11.45,11.45,0,0,1,4.62-.95,11.57,11.57,0,0,1,4.64.95,12,12,0,0,1,3.81,2.58,12.39,12.39,0,0,1,2.57,3.81,11.75,11.75,0,0,1,0,9.25A12.19,12.19,0,0,1,211.12,22a11.93,11.93,0,0,1-3.81,2.55,11.73,11.73,0,0,1-4.64.93,11.61,11.61,0,0,1-4.62-.93,11.89,11.89,0,0,1-6.34-6.34A11.63,11.63,0,0,1,190.78,13.57Zm2.22,0a9.5,9.5,0,0,0,.77,3.81,10,10,0,0,0,2.08,3.1,9.72,9.72,0,0,0,3.07,2.09,9.32,9.32,0,0,0,3.76.77,9.43,9.43,0,0,0,3.77-.77,9.78,9.78,0,0,0,5.2-5.2,9.83,9.83,0,0,0,0-7.61,10.09,10.09,0,0,0-2.09-3.12,9.73,9.73,0,0,0-3.1-2.11,9.44,9.44,0,0,0-3.77-.77,9.28,9.28,0,0,0-3.77.77,9.82,9.82,0,0,0-5.15,5.23A9.7,9.7,0,0,0,193,13.57Z" transform="translate(-1.37 -0.8)"/><path class="cls-1" d="M238.52,25.21q-.65-1.5-1.54-3.69t-1.83-4.64h-9q-.95,2.45-1.83,4.64t-1.54,3.69h-2.22l1.31-3.12q.82-1.94,1.76-4.26l2-4.82,2-4.82q.95-2.32,1.75-4.25T230.68.8Q231.17,2,232,3.93t1.76,4.25l2,4.82,2,4.82,1.75,4.26q.8,1.94,1.32,3.12ZM230.35,6.52q-.65,1.54-1.55,3.76T227,14.95h7.45l-1.86-4.67q-.88-2.22-1.54-3.76a3.26,3.26,0,0,1-.16-.44q-.1-.31-.16-.57c0,.17-.1.37-.16.57A3.26,3.26,0,0,1,230.35,6.52Z" transform="translate(-1.37 -0.8)"/><path class="cls-1" d="M249.28,25.21V1.87h5.65a9.91,9.91,0,0,1,2.84.41,7.1,7.1,0,0,1,2.43,1.26,6.27,6.27,0,0,1,1.7,2.12,6.73,6.73,0,0,1,.64,3,8.22,8.22,0,0,1-.88,3.73,5.91,5.91,0,0,1-2.91,2.71l.78,1.31,1.08,1.78,1.23,2,1.23,2L264.15,24l.78,1.24h-2.71q-.26-.39-.69-1.08l-.95-1.54-1.11-1.8-1.14-1.86-1.06-1.73-.87-1.4a3.51,3.51,0,0,1-.69.06H251.5v9.35Zm2.22-11.47H255a5.82,5.82,0,0,0,2.61-.52,4.76,4.76,0,0,0,1.65-1.29,4.68,4.68,0,0,0,.85-1.63,5.83,5.83,0,0,0,.25-1.58A4.59,4.59,0,0,0,260,7a4.66,4.66,0,0,0-1-1.52,4.8,4.8,0,0,0-1.67-1.08A6.18,6.18,0,0,0,255,4h-3.5Z" transform="translate(-1.37 -0.8)"/><path class="cls-1" d="M273.72,1.87h5.42a14.82,14.82,0,0,1,6,1.08,11.56,11.56,0,0,1,4,2.78,10.46,10.46,0,0,1,2.22,3.81A13.39,13.39,0,0,1,292,13.7a11.59,11.59,0,0,1-.95,4.77,11,11,0,0,1-6.27,5.93,12.67,12.67,0,0,1-4.51.8h-6.57Zm6.34,21.21a11,11,0,0,0,3.81-.65,9.17,9.17,0,0,0,3.1-1.88,8.64,8.64,0,0,0,2.08-3,10.09,10.09,0,0,0,.75-4,10,10,0,0,0-.7-3.77,8.71,8.71,0,0,0-2-3,9.53,9.53,0,0,0-3.14-2A11,11,0,0,0,279.83,4H276V23.08Z" transform="translate(-1.37 -0.8)"/></svg>