<svg id="Layer_1" data-name="Layer 1" xmlns="http://www.w3.org/2000/svg" viewBox="0 0 35 35">
  <defs>
    <style>
      .cls-1 {
      fill:#4bb752;
      }

      .cls-2 {
      fill:#fff;
      }
    </style>
  </defs>
  <title>Dragonboard Logo</title>
  <rect class="cls-1" width="35" height="35"/>
  <path class="cls-2" d="M9,5.54h5.32a14.52,14.52,0,0,1,5.86,1.06,11.32,11.32,0,0,1,3.91,2.72A10.25,10.25,0,0,1,26.23,13a13.13,13.13,0,0,1,.67,4.08A11.36,11.36,0,0,1,26,21.8a10.75,10.75,0,0,1-6.15,5.81,12.42,12.42,0,0,1-4.42.78H9Zm6.21,20.78a10.74,10.74,0,0,0,3.73-.64,9,9,0,0,0,3-1.84,8.45,8.45,0,0,0,2-2.93A9.88,9.88,0,0,0,24.73,17,9.83,9.83,0,0,0,24,13.3a8.53,8.53,0,0,0-2-3,9.33,9.33,0,0,0-3.07-2,10.74,10.74,0,0,0-4-.72H11.18V26.32Z"/>
</svg>