<svg id="Layer_1" data-name="Layer 1" xmlns="http://www.w3.org/2000/svg" viewBox="0 0 300 300"><defs><style>.cls-1{fill:#4bb752;}.cls-2{fill:#fff;}</style></defs><title>Untitled-1</title><rect class="cls-1" width="300" height="300"/><path class="cls-2" d="M76.9,47.47h45.56q29.64,0,50.23,9.06t33.49,23.33a87.84,87.84,0,0,1,18.66,32,112.56,112.56,0,0,1,5.76,35q0,22.23-8,40.07a92.14,92.14,0,0,1-52.7,49.82,106.44,106.44,0,0,1-37.88,6.72H76.9ZM130.15,225.6a92,92,0,0,0,32-5.49,76.89,76.89,0,0,0,26.07-15.78,72.39,72.39,0,0,0,17.43-25.11q6.31-14.82,6.31-33.49A84.26,84.26,0,0,0,206,114a73.16,73.16,0,0,0-16.88-25.39,80,80,0,0,0-26.35-16.88q-15.37-6.18-34.58-6.18H95.84v160Z"/></svg>