<svg width="110px" height="110px" viewBox="0 0 110 110" version="1.1" xmlns="http://www.w3.org/2000/svg" xmlns:xlink="http://www.w3.org/1999/xlink">
    <!-- Generator: Sketch 40.3 (33839) - http://www.bohemiancoding.com/sketch -->
    <title>Layer_1</title>
    <desc>Created with Sketch.</desc>
    <defs></defs>
    <g id="Page-1" stroke="none" stroke-width="1" fill="none" fill-rule="evenodd">
        <g id="Artboard-2" transform="translate(-1505.000000, -877.000000)" fill="#FFFFFF">
            <g id="Group-4" transform="translate(1086.000000, 789.000000)">
                <g id="Group-3-Copy-2" transform="translate(307.000000, 88.000000)">
                    <g id="pricing-data-viz" transform="translate(112.000000, 0.000000)">
                        <g id="Layer_1">
                            <path d="M55,4.58333333 C82.7291667,4.58333333 105.416667,27.2708333 105.416667,55 C105.416667,82.7291667 82.7291667,105.416667 55,105.416667 C27.2708333,105.416667 4.58333333,82.7291667 4.58333333,55 C4.58333333,27.2708333 27.2708333,4.58333333 55,4.58333333 L55,4.58333333 Z M55,0 C24.5208333,0 0,24.5208333 0,55 C0,85.4791667 24.5208333,110 55,110 C85.4791667,110 110,85.4791667 110,55 C110,24.5208333 85.4791667,0 55,0 L55,0 L55,0 Z" id="Shape"></path>
                            <g id="Group" transform="translate(25.208333, 25.208333)">
                                <path d="M52.4791667,4.58333333 C53.8541667,4.58333333 55,5.72916667 55,7.10416667 L55,52.4791667 C55,53.8541667 53.8541667,55 52.4791667,55 L7.10416667,55 C5.72916667,55 4.58333333,53.8541667 4.58333333,52.4791667 L4.58333333,7.10416667 C4.58333333,5.72916667 5.72916667,4.58333333 7.10416667,4.58333333 L52.4791667,4.58333333 L52.4791667,4.58333333 Z M52.4791667,0 L7.10416667,0 C3.20833333,0 0,3.20833333 0,7.10416667 L0,52.4791667 C0,56.375 3.20833333,59.5833333 7.10416667,59.5833333 L52.4791667,59.5833333 C56.375,59.5833333 59.5833333,56.375 59.5833333,52.4791667 L59.5833333,7.10416667 C59.5833333,3.20833333 56.375,0 52.4791667,0 L52.4791667,0 L52.4791667,0 Z" id="Shape"></path>
                                <path d="M25.2083333,25.2083333 L11.4583333,25.2083333 L11.4583333,13.5942557 L25.2083333,13.5942557 L25.2083333,25.2083333 Z M27.5,9.16666667 L9.16666667,9.16666667 L9.16666667,27.5 L27.5,27.5 L27.5,9.16666667 L27.5,9.16666667 L27.5,9.16666667 Z" id="Shape"></path>
                                <path d="M48.125,25.2083333 L34.375,25.2083333 L34.375,13.5942557 L48.125,13.5942557 L48.125,25.2083333 Z M50.4166667,9.16666667 L32.0833333,9.16666667 L32.0833333,27.5 L50.4166667,27.5 L50.4166667,9.16666667 L50.4166667,9.16666667 L50.4166667,9.16666667 Z" id="Shape"></path>
                                <path d="M25.2083333,48.125 L11.4583333,48.125 L11.4583333,36.5109223 L25.2083333,36.5109223 L25.2083333,48.125 Z M27.5,32.0833333 L9.16666667,32.0833333 L9.16666667,50.4166667 L27.5,50.4166667 L27.5,32.0833333 L27.5,32.0833333 L27.5,32.0833333 Z" id="Shape"></path>
                                <path d="M48.125,48.125 L34.375,48.125 L34.375,36.5109223 L48.125,36.5109223 L48.125,48.125 Z M50.4166667,32.0833333 L32.0833333,32.0833333 L32.0833333,50.4166667 L50.4166667,50.4166667 L50.4166667,32.0833333 L50.4166667,32.0833333 L50.4166667,32.0833333 Z" id="Shape"></path>
                            </g>
                            <polygon id="Shape" points="41.25 42.3179612 38.9583333 42.3179612 38.9583333 51.4846278 41.25 51.4846278"></polygon>
                            <polygon id="Shape" points="45.8333333 46.9012945 43.5416667 46.9012945 43.5416667 51.4846278 45.8333333 51.4846278"></polygon>
                            <polygon id="Shape" points="48.125 66.4583333 48.125 64.1666667 38.9583333 64.1666667 38.9583333 66.4583333"></polygon>
                            <polygon id="Shape" points="48.125 71.0416667 48.125 68.75 38.9583333 68.75 38.9583333 71.0416667"></polygon>
                            <path d="M66.4583333,68.9791667 C68.0997916,68.9791667 68.75,69.5968647 68.75,71.0416667 L71.0416667,71.0416667 C71.0416667,68.304177 69.3399014,66.6875 66.4583333,66.6875 C63.4955268,66.6875 61.875,68.1459741 61.875,71.0416667 L64.1666667,71.0416667 C64.1666667,69.4686092 64.7104917,68.9791667 66.4583333,68.9791667 Z" id="Shape"></path>
                            <polygon id="Shape" points="71.0416667 48.125 71.0416667 45.8333333 61.875 45.8333333 61.875 48.125"></polygon>
                            <polygon id="Shape" points="66.4583333 43.5416667 66.4583333 41.25 61.875 41.25 61.875 43.5416667"></polygon>
                        </g>
                    </g>
                </g>
            </g>
        </g>
    </g>
</svg>
